<?xml version="1.0" encoding="utf-8" ?>
<svg xmlns="http://www.w3.org/2000/svg" xmlns:xlink="http://www.w3.org/1999/xlink" width="8" height="10">
	<defs>
		<clipPath id="clip_0">
			<rect x="-700.11139" y="-216.14822" width="942.07996" height="687.23999" clip-rule="evenodd"/>
		</clipPath>
	</defs>
	<g clip-path="url(#clip_0)">
		<path fill="rgb(31,91,133)" stroke="none" transform="matrix(0.92 0 0 0.92 0.00854492 0.175964)" d="M3.795 0C2.51233 0 1.455 1.04053 1.455 2.34119C1.455 3.62451 2.51233 4.66504 3.795 4.68238C5.095 4.68238 6.135 3.62451 6.135 2.34119C6.135 1.04053 5.07767 0 3.795 0ZM0 7.96927C0 6.85037 1.705 5.36773 3.795 5.36773C5.885 5.36773 7.59 6.85037 7.59 7.96927C7.59 9.08817 5.885 9.4 3.795 9.4C1.705 9.4 0 9.08817 0 7.96927Z" fill-rule="evenodd"/>
	</g>
</svg>
